<svg width="307" height="88" viewBox="0 0 307 88" fill="none" xmlns="http://www.w3.org/2000/svg">
<rect y="48" width="307" height="16" fill="#EDDAD1"/>
<path d="M11.9682 55.224V15.416C11.9682 14.52 14.1228 14.072 18.4322 14.072C22.7842 14.072 24.9602 14.52 24.9602 15.416V46.776H34.8162C35.5842 46.776 36.1175 47.7787 36.4162 49.784C36.5442 50.7653 36.6082 51.768 36.6082 52.792C36.6082 53.816 36.5442 54.8613 36.4162 55.928C36.0748 57.976 35.5202 59 34.7522 59H15.0402C14.1015 59 13.3548 58.616 12.8002 57.848C12.2455 57.08 11.9682 56.2053 11.9682 55.224ZM39.7807 27.384C39.7807 26.9147 41.6153 26.68 45.2847 26.68C48.954 26.68 50.7887 26.9147 50.7887 27.384V46.072C50.7887 48.2053 51.4713 49.272 52.8367 49.272C53.8607 49.272 55.0127 48.824 56.2927 47.928V27.384C56.2927 26.9573 58.106 26.744 61.7327 26.744C65.3593 26.744 67.1727 26.9573 67.1727 27.384V48.376H68.8367C70.2873 48.376 71.0127 49.7627 71.0127 52.536C71.0127 53.944 70.714 55.3733 70.1167 56.824C69.2633 58.7013 68.1113 59.64 66.6607 59.64C63.802 59.64 61.69 58.4667 60.3247 56.12L60.2607 56.184C57.658 58.488 54.8633 59.64 51.8767 59.64C47.738 59.64 44.6873 58.616 42.7247 56.568C40.762 54.4773 39.7807 51.0427 39.7807 46.264V27.384ZM94.1132 27.192C94.2838 26.8507 95.3505 26.68 97.3132 26.68C103.713 26.68 106.828 26.9147 106.657 27.384L98.8492 43.576C104.097 53.3893 106.721 58.296 106.721 58.296C106.721 58.552 105.441 58.7653 102.881 58.936C100.321 59.1067 98.5078 59.192 97.4412 59.192C94.7532 59.192 93.3238 58.9147 93.1532 58.36L89.6972 47.672L85.7292 58.808C85.6438 59.1067 84.4278 59.256 82.0812 59.256C79.7345 59.256 77.6438 59.1707 75.8092 59C73.9745 58.8293 73.1425 58.616 73.3132 58.36L80.5452 43.64C75.5105 33.1013 72.9932 27.8107 72.9932 27.768C72.9932 27.512 73.6332 27.2773 74.9132 27.064C76.2358 26.8507 77.7078 26.744 79.3292 26.744C80.9932 26.744 82.5718 26.8293 84.0652 27C85.5585 27.128 86.3905 27.32 86.5612 27.576L89.9532 37.944L94.1132 27.192ZM134.73 57.272C132.042 58.8507 128.586 59.64 124.362 59.64C120.138 59.64 116.576 58.2107 113.674 55.352C110.773 52.4507 109.322 48.4613 109.322 43.384C109.322 38.264 110.709 34.1467 113.482 31.032C116.298 27.9173 119.84 26.36 124.106 26.36C128.373 26.36 131.658 27.448 133.962 29.624C136.309 31.8 137.482 34.4453 137.482 37.56C137.482 44.472 133.514 47.928 125.578 47.928H121.162C121.162 49.208 121.504 50.104 122.186 50.616C122.912 51.0853 123.957 51.32 125.322 51.32C128.309 51.32 131.146 50.6373 133.834 49.272C133.877 49.2293 134.069 49.528 134.41 50.168C135.434 52.0027 135.946 53.56 135.946 54.84C135.946 56.0773 135.541 56.888 134.73 57.272ZM126.73 38.776C126.73 36.984 125.856 36.088 124.106 36.088C123.296 36.088 122.592 36.344 121.994 36.856C121.44 37.3253 121.162 38.0293 121.162 38.968V40.952H124.618C126.026 40.952 126.73 40.2267 126.73 38.776ZM176.799 57.912C176.799 58.6373 174.645 59 170.335 59C166.026 59 163.871 58.6373 163.871 57.912V43.192H154.911V57.912C154.911 58.6373 152.757 59 148.447 59C144.138 59 141.983 58.6373 141.983 57.912V15.48C141.983 14.584 144.138 14.136 148.447 14.136C152.757 14.136 154.911 14.584 154.911 15.48V30.52H163.871V15.608C163.871 15.0107 164.938 14.584 167.071 14.328C168.181 14.2427 169.269 14.2 170.335 14.2L173.599 14.328C175.733 14.584 176.799 15.0107 176.799 15.608V57.912ZM185.603 55.224C182.957 52.28 181.635 48.2053 181.635 43C181.635 37.7947 182.957 33.72 185.603 30.776C188.291 27.832 191.896 26.36 196.419 26.36C200.941 26.36 204.525 27.832 207.171 30.776C209.816 33.72 211.139 37.7947 211.139 43C211.139 48.2053 209.816 52.28 207.171 55.224C204.525 58.168 200.941 59.64 196.419 59.64C191.896 59.64 188.291 58.168 185.603 55.224ZM196.419 37.048C194.029 37.048 192.835 39.0107 192.835 42.936C192.835 46.8613 194.029 48.824 196.419 48.824C198.851 48.824 200.067 46.8613 200.067 42.936C200.067 39.0107 198.851 37.048 196.419 37.048ZM244.655 58.68C244.655 58.9787 242.821 59.128 239.151 59.128C235.525 59.128 233.711 58.936 233.711 58.552V39.928C233.711 37.7947 233.007 36.728 231.599 36.728C230.874 36.728 229.914 37.1973 228.719 38.136V58.616C228.719 59.0427 226.885 59.256 223.215 59.256C219.589 59.256 217.775 59.0213 217.775 58.552V37.624H216.175C214.767 37.624 214.063 36.152 214.063 33.208C214.063 31.8853 214.319 30.5413 214.831 29.176C215.514 27.2987 216.623 26.36 218.159 26.36C219.695 26.36 221.167 26.7653 222.575 27.576C224.026 28.3867 224.901 29.1547 225.199 29.88C227.845 27.5333 230.767 26.36 233.967 26.36C237.21 26.36 239.813 27.3627 241.775 29.368C244.079 27.3627 246.853 26.36 250.095 26.36C257.135 26.36 260.655 30.648 260.655 39.224V58.68C260.655 58.9787 258.821 59.128 255.151 59.128C251.525 59.128 249.711 58.936 249.711 58.552V39.928C249.711 37.7947 249.007 36.728 247.599 36.728C246.831 36.728 245.85 37.1973 244.655 38.136V58.68ZM290.293 57.272C287.605 58.8507 284.149 59.64 279.925 59.64C275.701 59.64 272.138 58.2107 269.237 55.352C266.335 52.4507 264.885 48.4613 264.885 43.384C264.885 38.264 266.271 34.1467 269.045 31.032C271.861 27.9173 275.402 26.36 279.669 26.36C283.935 26.36 287.221 27.448 289.525 29.624C291.871 31.8 293.045 34.4453 293.045 37.56C293.045 44.472 289.077 47.928 281.141 47.928H276.725C276.725 49.208 277.066 50.104 277.749 50.616C278.474 51.0853 279.519 51.32 280.885 51.32C283.871 51.32 286.709 50.6373 289.397 49.272C289.439 49.2293 289.631 49.528 289.973 50.168C290.997 52.0027 291.509 53.56 291.509 54.84C291.509 56.0773 291.103 56.888 290.293 57.272ZM282.293 38.776C282.293 36.984 281.418 36.088 279.669 36.088C278.858 36.088 278.154 36.344 277.557 36.856C277.002 37.3253 276.725 38.0293 276.725 38.968V40.952H280.181C281.589 40.952 282.293 40.2267 282.293 38.776Z" fill="#F59E7C"/>
<line y1="82.5" x2="54" y2="82.5" stroke="#F59E7C" stroke-width="3"/>
<line x1="253" y1="82.5" x2="307" y2="82.5" stroke="#F59E7C" stroke-width="3"/>
<path d="M73.84 84H70.96V72.8H79.84V75.04H73.84V77.68H78.56V79.92H73.84V84ZM84.4075 81.84C84.9728 81.84 85.6128 81.7333 86.3275 81.52V75.52H89.1275V84H86.6475L86.4875 83.2C85.9862 83.5307 85.4688 83.776 84.9355 83.936C84.4128 84.0853 83.9702 84.16 83.6075 84.16H82.8875C82.1622 84.16 81.5808 83.9413 81.1435 83.504C80.7062 83.0667 80.4875 82.4853 80.4875 81.76V75.52H83.2875V81.28C83.2875 81.44 83.3408 81.5733 83.4475 81.68C83.5542 81.7867 83.6875 81.84 83.8475 81.84H84.4075ZM95.6019 77.84C94.9299 77.84 94.2365 78 93.5219 78.32V84H90.7219V75.52H93.2019L93.3619 76.56C94.2792 75.76 95.2392 75.36 96.2419 75.36H96.9619V77.84H95.6019ZM102.801 77.68C102.236 77.68 101.596 77.7867 100.881 78V84H98.0813V75.52H100.561L100.721 76.32C101.223 75.9893 101.735 75.7493 102.257 75.6C102.791 75.44 103.239 75.36 103.601 75.36H104.321C105.047 75.36 105.628 75.5787 106.065 76.016C106.503 76.4533 106.721 77.0347 106.721 77.76V84H103.921V78.24C103.921 78.08 103.868 77.9467 103.761 77.84C103.655 77.7333 103.521 77.68 103.361 77.68H102.801ZM111.679 75.84V84H108.879V78H107.679V75.84H111.679ZM108.879 72.64H111.679V74.88H108.879V72.64ZM112.964 81.76C115.13 81.92 116.836 82 118.084 82C118.244 82 118.378 81.9467 118.484 81.84C118.591 81.7333 118.644 81.6 118.644 81.44V80.88H115.204C114.479 80.88 113.898 80.6613 113.46 80.224C113.023 79.7867 112.804 79.2053 112.804 78.48V77.92C112.804 77.1947 113.023 76.6133 113.46 76.176C113.898 75.7387 114.479 75.52 115.204 75.52H120.644V77.6H116.164C116.004 77.6 115.871 77.6533 115.764 77.76C115.658 77.8667 115.604 78 115.604 78.16C115.604 78.32 115.658 78.4533 115.764 78.56C115.871 78.6667 116.004 78.72 116.164 78.72H119.044C119.77 78.72 120.351 78.9387 120.788 79.376C121.226 79.8133 121.444 80.3947 121.444 81.12V81.76C121.444 82.4853 121.226 83.0667 120.788 83.504C120.351 83.9413 119.77 84.16 119.044 84.16C117.156 84.16 115.13 84.0533 112.964 83.84V81.76ZM125.366 75.68C126.4 75.4667 127.307 75.36 128.086 75.36H128.806C129.531 75.36 130.112 75.5787 130.55 76.016C130.987 76.4533 131.206 77.0347 131.206 77.76V84H128.406V78.08C128.406 77.92 128.352 77.7867 128.246 77.68C128.139 77.5733 128.006 77.52 127.846 77.52H127.286C126.88 77.52 126.507 77.5413 126.166 77.584C125.835 77.6267 125.568 77.6587 125.366 77.68V84H122.566V72.8H125.366V75.68ZM136.321 72.8H139.361L142.001 78.24L144.641 72.8H147.681L143.441 81.04V84H140.561V81.04L136.321 72.8ZM156.003 81.6C156.003 82.4 155.773 83.0293 155.315 83.488C154.867 83.936 154.242 84.16 153.443 84.16H149.763C148.963 84.16 148.333 83.936 147.875 83.488C147.427 83.0293 147.203 82.4 147.203 81.6V77.92C147.203 77.12 147.427 76.496 147.875 76.048C148.333 75.5893 148.963 75.36 149.763 75.36H153.443C154.242 75.36 154.867 75.5893 155.315 76.048C155.773 76.496 156.003 77.12 156.003 77.92V81.6ZM153.203 78.16C153.203 77.7333 152.989 77.52 152.563 77.52H150.643C150.216 77.52 150.003 77.7333 150.003 78.16V81.36C150.003 81.7867 150.216 82 150.643 82H152.563C152.989 82 153.203 81.7867 153.203 81.36V78.16ZM161.361 81.84C161.926 81.84 162.566 81.7333 163.281 81.52V75.52H166.081V84H163.601L163.441 83.2C162.939 83.5307 162.422 83.776 161.889 83.936C161.366 84.0853 160.923 84.16 160.561 84.16H159.841C159.115 84.16 158.534 83.9413 158.097 83.504C157.659 83.0667 157.441 82.4853 157.441 81.76V75.52H160.241V81.28C160.241 81.44 160.294 81.5733 160.401 81.68C160.507 81.7867 160.641 81.84 160.801 81.84H161.361ZM172.555 77.84C171.883 77.84 171.19 78 170.475 78.32V84H167.675V75.52H170.155L170.315 76.56C171.232 75.76 172.192 75.36 173.195 75.36H173.915V77.84H172.555ZM186.231 72.8C187.437 72.8 188.349 73.1147 188.967 73.744C189.597 74.3627 189.911 75.2747 189.911 76.48V80.32C189.911 81.5253 189.597 82.4427 188.967 83.072C188.349 83.6907 187.437 84 186.231 84H179.991V72.8H186.231ZM187.031 76.48C187.031 75.52 186.551 75.04 185.591 75.04H182.871V81.76H185.591C186.551 81.76 187.031 81.28 187.031 80.32V76.48ZM196.227 77.84C195.555 77.84 194.862 78 194.147 78.32V84H191.347V75.52H193.827L193.987 76.56C194.904 75.76 195.864 75.36 196.867 75.36H197.587V77.84H196.227ZM201.674 77.36C201.247 77.36 201.034 77.5733 201.034 78V78.88H203.754V78C203.754 77.5733 203.54 77.36 203.114 77.36H201.674ZM206.234 83.84C204.175 84.0533 202.308 84.16 200.634 84.16C199.908 84.16 199.327 83.9413 198.89 83.504C198.452 83.0667 198.234 82.4853 198.234 81.76V77.92C198.234 77.12 198.458 76.496 198.906 76.048C199.364 75.5893 199.994 75.36 200.794 75.36H203.994C204.794 75.36 205.418 75.5893 205.866 76.048C206.324 76.496 206.554 77.12 206.554 77.92V80.88H201.034V81.52C201.034 81.68 201.087 81.8133 201.194 81.92C201.3 82.0267 201.434 82.08 201.594 82.08C202.65 82.08 204.196 82 206.234 81.84V83.84ZM211.348 81.92C211.913 81.92 212.553 81.8133 213.268 81.6V80.64H210.948C210.788 80.64 210.654 80.6933 210.548 80.8C210.441 80.9067 210.388 81.04 210.388 81.2V81.36C210.388 81.52 210.441 81.6533 210.548 81.76C210.654 81.8667 210.788 81.92 210.948 81.92H211.348ZM208.388 75.68C210.34 75.4667 212.1 75.36 213.668 75.36C214.393 75.36 214.974 75.5787 215.411 76.016C215.849 76.4533 216.068 77.0347 216.068 77.76V84H213.588L213.428 83.2C212.926 83.5307 212.409 83.776 211.876 83.936C211.353 84.0853 210.91 84.16 210.548 84.16H209.988C209.262 84.16 208.681 83.9413 208.243 83.504C207.806 83.0667 207.588 82.4853 207.588 81.76V81.04C207.588 80.3147 207.806 79.7333 208.243 79.296C208.681 78.8587 209.262 78.64 209.988 78.64H213.268V78C213.268 77.84 213.214 77.7067 213.108 77.6C213.001 77.4933 212.868 77.44 212.708 77.44C212.014 77.44 211.246 77.472 210.404 77.536C209.572 77.6 208.9 77.648 208.388 77.68V75.68ZM223.183 75.36C224.047 75.36 224.714 75.68 225.183 76.32C225.674 75.9893 226.202 75.7493 226.767 75.6C227.343 75.44 227.855 75.36 228.303 75.36H228.463C229.188 75.36 229.77 75.5787 230.207 76.016C230.644 76.4533 230.863 77.0347 230.863 77.76V84H228.063V78.24C228.063 78.08 228.01 77.9467 227.903 77.84C227.796 77.7333 227.663 77.68 227.503 77.68H227.423C226.943 77.68 226.33 77.7867 225.583 78V84H222.783V78.24C222.783 78.08 222.73 77.9467 222.623 77.84C222.516 77.7333 222.383 77.68 222.223 77.68H222.143C221.663 77.68 221.05 77.7867 220.303 78V84H217.503V75.52H219.983L220.143 76.32C220.644 75.9893 221.156 75.7493 221.679 75.6C222.212 75.44 222.66 75.36 223.023 75.36H223.183Z" fill="#F59E7C"/>
</svg>
